<svg xmlns="http://www.w3.org/2000/svg" width="240" height="180" viewBox="0 0 240 180">
  <rect width="240" height="180" rx="28" fill="#fffbeb"/>
  <rect x="48" y="48" width="144" height="88" rx="20" fill="#15803d"/>
  <path d="M48 78h144" stroke="#86efac" stroke-width="12"/>
  <circle cx="75" cy="110" r="12" fill="#fef3c7"/>
  <rect x="104" y="104" width="58" height="12" rx="6" fill="#dcfce7"/>
  <path d="M107 62h36v22c0 12-8 22-18 22s-18-10-18-22V62z" fill="#fef3c7"/>
  <path d="M143 70h8c8 0 12 5 12 11s-4 11-12 11h-8" fill="none" stroke="#fef3c7" stroke-width="7"/>
  <path d="M112 52c0-8 8-8 8-16M126 52c0-8 8-8 8-16" stroke="#f59e0b" stroke-width="5" stroke-linecap="round"/>
</svg>
